<svg xmlns="http://www.w3.org/2000/svg" xmlns:xlink="http://www.w3.org/1999/xlink" width="500" zoomAndPan="magnify" viewBox="0 0 375 374.999991" height="500" preserveAspectRatio="xMidYMid meet" version="1.0"><defs><clipPath id="380ba6fb1e"><path d="M 37.5 37.5 L 80 37.5 L 80 75 L 37.5 75 Z M 37.5 37.5 " clip-rule="nonzero"/></clipPath><clipPath id="5b1a91a038"><path d="M 295 37.5 L 337.5 37.5 L 337.5 75 L 295 75 Z M 295 37.5 " clip-rule="nonzero"/></clipPath><clipPath id="4a9549b90e"><path d="M 37.5 300 L 80 300 L 80 337.5 L 37.5 337.5 Z M 37.5 300 " clip-rule="nonzero"/></clipPath><clipPath id="afce174292"><path d="M 295 300 L 337.5 300 L 337.5 337.5 L 295 337.5 Z M 295 300 " clip-rule="nonzero"/></clipPath></defs><rect x="-37.5" width="450" fill="#ffffff" y="-37.499999" height="449.999989" fill-opacity="1"/><rect x="-37.5" width="450" fill="#ffffff" y="-37.499999" height="449.999989" fill-opacity="1"/><g clip-path="url(#380ba6fb1e)"><path fill="#000000" d="M 42.1875 75 C 44.765625 75 46.875 72.890625 46.875 70.3125 L 46.875 46.875 L 75 46.875 C 77.578125 46.875 79.6875 44.765625 79.6875 42.1875 C 79.6875 39.609375 77.578125 37.5 75 37.5 L 42.1875 37.5 C 39.609375 37.5 37.5 39.609375 37.5 42.1875 L 37.5 70.3125 C 37.5 72.890625 39.609375 75 42.1875 75 Z M 42.1875 75 " fill-opacity="1" fill-rule="nonzero"/></g><g clip-path="url(#5b1a91a038)"><path fill="#000000" d="M 332.8125 37.5 L 300 37.5 C 297.421875 37.5 295.3125 39.609375 295.3125 42.1875 C 295.3125 44.765625 297.421875 46.875 300 46.875 L 328.125 46.875 L 328.125 70.3125 C 328.125 72.890625 330.234375 75 332.8125 75 C 335.390625 75 337.5 72.890625 337.5 70.3125 L 337.5 42.1875 C 337.5 39.609375 335.390625 37.5 332.8125 37.5 Z M 332.8125 37.5 " fill-opacity="1" fill-rule="nonzero"/></g><g clip-path="url(#4a9549b90e)"><path fill="#000000" d="M 75 328.125 L 46.875 328.125 L 46.875 304.6875 C 46.875 302.109375 44.765625 300 42.1875 300 C 39.609375 300 37.5 302.109375 37.5 304.6875 L 37.5 332.8125 C 37.5 335.390625 39.609375 337.5 42.1875 337.5 L 75 337.5 C 77.578125 337.5 79.6875 335.390625 79.6875 332.8125 C 79.6875 330.234375 77.578125 328.125 75 328.125 Z M 75 328.125 " fill-opacity="1" fill-rule="nonzero"/></g><g clip-path="url(#afce174292)"><path fill="#000000" d="M 332.8125 300 C 330.234375 300 328.125 302.109375 328.125 304.6875 L 328.125 328.125 L 300 328.125 C 297.421875 328.125 295.3125 330.234375 295.3125 332.8125 C 295.3125 335.390625 297.421875 337.5 300 337.5 L 332.8125 337.5 C 335.390625 337.5 337.5 335.390625 337.5 332.8125 L 337.5 304.6875 C 337.5 302.109375 335.390625 300 332.8125 300 Z M 332.8125 300 " fill-opacity="1" fill-rule="nonzero"/></g><path fill="#000000" d="M 164.0625 93.75 L 164.0625 75 C 164.0625 72.421875 161.953125 70.3125 159.375 70.3125 C 156.796875 70.3125 154.6875 72.421875 154.6875 75 L 154.6875 93.75 C 154.6875 96.328125 156.796875 98.4375 159.375 98.4375 C 161.953125 98.4375 164.0625 96.328125 164.0625 93.75 Z M 164.0625 93.75 " fill-opacity="1" fill-rule="nonzero"/><path fill="#000000" d="M 145.3125 93.75 L 145.3125 75 C 145.3125 72.421875 143.203125 70.3125 140.625 70.3125 C 138.046875 70.3125 135.9375 72.421875 135.9375 75 L 135.9375 93.75 C 135.9375 96.328125 138.046875 98.4375 140.625 98.4375 C 143.203125 98.4375 145.3125 96.328125 145.3125 93.75 Z M 145.3125 93.75 " fill-opacity="1" fill-rule="nonzero"/><path fill="#000000" d="M 189.84375 75.703125 L 176.25 75.703125 C 173.671875 75.703125 171.5625 77.8125 171.5625 80.390625 C 171.5625 82.96875 173.671875 85.078125 176.25 85.078125 L 185.15625 85.078125 L 185.15625 91.40625 C 185.15625 93.984375 187.265625 96.09375 189.84375 96.09375 L 213.28125 96.09375 C 215.859375 96.09375 217.96875 93.984375 217.96875 91.40625 C 217.96875 88.828125 215.859375 86.71875 213.28125 86.71875 L 194.53125 86.71875 L 194.53125 80.390625 C 194.53125 77.8125 192.421875 75.703125 189.84375 75.703125 Z M 189.84375 75.703125 " fill-opacity="1" fill-rule="nonzero"/><path fill="#000000" d="M 163.359375 128.4375 C 163.359375 131.015625 165.46875 133.125 168.046875 133.125 L 175.078125 133.125 L 175.078125 139.6875 C 175.078125 142.265625 177.1875 144.375 179.765625 144.375 C 182.34375 144.375 184.453125 142.265625 184.453125 139.6875 L 184.453125 133.125 L 191.484375 133.125 C 194.0625 133.125 196.171875 131.015625 196.171875 128.4375 C 196.171875 125.859375 194.0625 123.75 191.484375 123.75 L 168.046875 123.75 C 165.46875 123.75 163.359375 125.859375 163.359375 128.4375 Z M 163.359375 128.4375 " fill-opacity="1" fill-rule="nonzero"/><path fill="#000000" d="M 133.125 108.984375 C 133.125 111.5625 135.234375 113.671875 137.8125 113.671875 L 148.359375 113.671875 L 148.359375 123.75 L 140.859375 123.75 C 138.28125 123.75 136.171875 125.859375 136.171875 128.4375 L 136.171875 139.6875 C 136.171875 142.265625 138.28125 144.375 140.859375 144.375 C 143.4375 144.375 145.546875 142.265625 145.546875 139.6875 L 145.546875 133.125 L 153.046875 133.125 C 155.625 133.125 157.734375 131.015625 157.734375 128.4375 L 157.734375 113.671875 L 163.59375 113.671875 C 166.171875 113.671875 168.28125 111.5625 168.28125 108.984375 C 168.28125 106.40625 166.171875 104.296875 163.59375 104.296875 L 137.8125 104.296875 C 135.234375 104.296875 133.125 106.40625 133.125 108.984375 Z M 133.125 108.984375 " fill-opacity="1" fill-rule="nonzero"/><path fill="#000000" d="M 171.5625 167.109375 C 171.5625 169.6875 173.671875 171.796875 176.25 171.796875 L 183.75 171.796875 L 183.75 174.609375 C 183.75 177.1875 185.859375 179.296875 188.4375 179.296875 L 200.15625 179.296875 L 200.15625 187.96875 L 179.765625 187.96875 C 177.1875 187.96875 175.078125 190.078125 175.078125 192.65625 C 175.078125 195.234375 177.1875 197.34375 179.765625 197.34375 L 204.84375 197.34375 C 207.421875 197.34375 209.53125 195.234375 209.53125 192.65625 L 209.53125 179.296875 L 217.734375 179.296875 C 220.3125 179.296875 222.421875 177.1875 222.421875 174.609375 L 222.421875 164.0625 L 230.625 164.0625 C 233.203125 164.0625 235.3125 161.953125 235.3125 159.375 C 235.3125 156.796875 233.203125 154.6875 230.625 154.6875 L 217.734375 154.6875 C 215.15625 154.6875 213.046875 156.796875 213.046875 159.375 L 213.046875 169.921875 L 193.125 169.921875 L 193.125 167.109375 C 193.125 164.53125 191.015625 162.421875 188.4375 162.421875 L 176.25 162.421875 C 173.671875 162.421875 171.5625 164.53125 171.5625 167.109375 Z M 171.5625 167.109375 " fill-opacity="1" fill-rule="nonzero"/><path fill="#000000" d="M 152.8125 209.765625 C 152.8125 212.34375 154.921875 214.453125 157.5 214.453125 L 166.40625 214.453125 L 166.40625 229.6875 C 166.40625 232.265625 168.515625 234.375 171.09375 234.375 C 173.671875 234.375 175.78125 232.265625 175.78125 229.6875 L 175.78125 214.453125 L 184.6875 214.453125 C 187.265625 214.453125 189.375 212.34375 189.375 209.765625 C 189.375 207.1875 187.265625 205.078125 184.6875 205.078125 L 157.5 205.078125 C 154.921875 205.078125 152.8125 207.1875 152.8125 209.765625 Z M 152.8125 209.765625 " fill-opacity="1" fill-rule="nonzero"/><path fill="#000000" d="M 121.875 67.96875 L 65.625 67.96875 C 63.046875 67.96875 60.9375 70.078125 60.9375 72.65625 L 60.9375 128.90625 C 60.9375 131.484375 63.046875 133.59375 65.625 133.59375 L 121.875 133.59375 C 124.453125 133.59375 126.5625 131.484375 126.5625 128.90625 L 126.5625 72.65625 C 126.5625 70.078125 124.453125 67.96875 121.875 67.96875 Z M 117.1875 124.21875 L 70.3125 124.21875 L 70.3125 77.34375 L 117.1875 77.34375 Z M 117.1875 124.21875 " fill-opacity="1" fill-rule="nonzero"/><path fill="#000000" d="M 82.03125 117.1875 L 105.46875 117.1875 C 108.046875 117.1875 110.15625 115.078125 110.15625 112.5 L 110.15625 89.0625 C 110.15625 86.484375 108.046875 84.375 105.46875 84.375 L 82.03125 84.375 C 79.453125 84.375 77.34375 86.484375 77.34375 89.0625 L 77.34375 112.5 C 77.34375 115.078125 79.453125 117.1875 82.03125 117.1875 Z M 86.71875 93.75 L 100.78125 93.75 L 100.78125 107.8125 L 86.71875 107.8125 Z M 86.71875 93.75 " fill-opacity="1" fill-rule="nonzero"/><path fill="#000000" d="M 60.9375 302.34375 C 60.9375 304.921875 63.046875 307.03125 65.625 307.03125 L 121.875 307.03125 C 124.453125 307.03125 126.5625 304.921875 126.5625 302.34375 L 126.5625 246.09375 C 126.5625 243.515625 124.453125 241.40625 121.875 241.40625 L 65.625 241.40625 C 63.046875 241.40625 60.9375 243.515625 60.9375 246.09375 Z M 70.3125 250.78125 L 117.1875 250.78125 L 117.1875 297.65625 L 70.3125 297.65625 Z M 70.3125 250.78125 " fill-opacity="1" fill-rule="nonzero"/><path fill="#000000" d="M 105.46875 257.8125 L 82.03125 257.8125 C 79.453125 257.8125 77.34375 259.921875 77.34375 262.5 L 77.34375 285.9375 C 77.34375 288.515625 79.453125 290.625 82.03125 290.625 L 105.46875 290.625 C 108.046875 290.625 110.15625 288.515625 110.15625 285.9375 L 110.15625 262.5 C 110.15625 259.921875 108.046875 257.8125 105.46875 257.8125 Z M 100.78125 281.25 L 86.71875 281.25 L 86.71875 267.1875 L 100.78125 267.1875 Z M 100.78125 281.25 " fill-opacity="1" fill-rule="nonzero"/><path fill="#000000" d="M 314.0625 72.65625 C 314.0625 70.078125 311.953125 67.96875 309.375 67.96875 L 253.125 67.96875 C 250.546875 67.96875 248.4375 70.078125 248.4375 72.65625 L 248.4375 128.90625 C 248.4375 131.484375 250.546875 133.59375 253.125 133.59375 L 309.375 133.59375 C 311.953125 133.59375 314.0625 131.484375 314.0625 128.90625 Z M 304.6875 124.21875 L 257.8125 124.21875 L 257.8125 77.34375 L 304.6875 77.34375 Z M 304.6875 124.21875 " fill-opacity="1" fill-rule="nonzero"/><path fill="#000000" d="M 269.53125 117.1875 L 292.96875 117.1875 C 295.546875 117.1875 297.65625 115.078125 297.65625 112.5 L 297.65625 89.0625 C 297.65625 86.484375 295.546875 84.375 292.96875 84.375 L 269.53125 84.375 C 266.953125 84.375 264.84375 86.484375 264.84375 89.0625 L 264.84375 112.5 C 264.84375 115.078125 266.953125 117.1875 269.53125 117.1875 Z M 274.21875 93.75 L 288.28125 93.75 L 288.28125 107.8125 L 274.21875 107.8125 Z M 274.21875 93.75 " fill-opacity="1" fill-rule="nonzero"/><path fill="#000000" d="M 253.125 307.03125 L 309.375 307.03125 C 311.953125 307.03125 314.0625 304.921875 314.0625 302.34375 L 314.0625 246.09375 C 314.0625 243.515625 311.953125 241.40625 309.375 241.40625 L 253.125 241.40625 C 250.546875 241.40625 248.4375 243.515625 248.4375 246.09375 L 248.4375 302.34375 C 248.4375 304.921875 250.546875 307.03125 253.125 307.03125 Z M 257.8125 250.78125 L 304.6875 250.78125 L 304.6875 297.65625 L 257.8125 297.65625 Z M 257.8125 250.78125 " fill-opacity="1" fill-rule="nonzero"/><path fill="#000000" d="M 292.96875 257.8125 L 269.53125 257.8125 C 266.953125 257.8125 264.84375 259.921875 264.84375 262.5 L 264.84375 285.9375 C 264.84375 288.515625 266.953125 290.625 269.53125 290.625 L 292.96875 290.625 C 295.546875 290.625 297.65625 288.515625 297.65625 285.9375 L 297.65625 262.5 C 297.65625 259.921875 295.546875 257.8125 292.96875 257.8125 Z M 288.28125 281.25 L 274.21875 281.25 L 274.21875 267.1875 L 288.28125 267.1875 Z M 288.28125 281.25 " fill-opacity="1" fill-rule="nonzero"/><path fill="#000000" d="M 86.71875 145.78125 C 86.71875 143.203125 84.609375 141.09375 82.03125 141.09375 C 79.453125 141.09375 77.34375 143.203125 77.34375 145.78125 L 77.34375 165.703125 C 77.34375 168.28125 79.453125 170.390625 82.03125 170.390625 L 91.40625 170.390625 L 91.40625 192.1875 C 91.40625 194.765625 93.515625 196.875 96.09375 196.875 L 117.1875 196.875 C 119.765625 196.875 121.875 194.765625 121.875 192.1875 C 121.875 189.609375 119.765625 187.5 117.1875 187.5 L 100.78125 187.5 L 100.78125 170.390625 L 135.9375 170.390625 L 135.9375 199.21875 C 135.9375 201.796875 138.046875 203.90625 140.625 203.90625 C 143.203125 203.90625 145.3125 201.796875 145.3125 199.21875 L 145.3125 165.703125 C 145.3125 163.125 143.203125 161.015625 140.625 161.015625 L 86.71875 161.015625 Z M 86.71875 145.78125 " fill-opacity="1" fill-rule="nonzero"/><path fill="#000000" d="M 123.75 143.4375 L 103.828125 143.4375 C 101.25 143.4375 99.140625 145.546875 99.140625 148.125 C 99.140625 150.703125 101.25 152.8125 103.828125 152.8125 L 123.75 152.8125 C 126.328125 152.8125 128.4375 150.703125 128.4375 148.125 C 128.4375 145.546875 126.328125 143.4375 123.75 143.4375 Z M 123.75 143.4375 " fill-opacity="1" fill-rule="nonzero"/><path fill="#000000" d="M 168.75 154.6875 L 168.75 145.3125 C 168.75 142.734375 166.640625 140.625 164.0625 140.625 C 161.484375 140.625 159.375 142.734375 159.375 145.3125 L 159.375 154.6875 C 159.375 157.265625 161.484375 159.375 164.0625 159.375 C 166.640625 159.375 168.75 157.265625 168.75 154.6875 Z M 168.75 154.6875 " fill-opacity="1" fill-rule="nonzero"/><path fill="#000000" d="M 182.8125 248.4375 C 182.8125 245.859375 180.703125 243.75 178.125 243.75 L 140.625 243.75 L 140.625 219.609375 C 140.625 217.03125 138.515625 214.921875 135.9375 214.921875 C 133.359375 214.921875 131.25 217.03125 131.25 219.609375 L 131.25 248.4375 C 131.25 251.015625 133.359375 253.125 135.9375 253.125 L 178.125 253.125 C 180.703125 253.125 182.8125 251.015625 182.8125 248.4375 Z M 182.8125 248.4375 " fill-opacity="1" fill-rule="nonzero"/><path fill="#000000" d="M 148.359375 224.53125 L 148.359375 234.375 C 148.359375 236.953125 150.46875 239.0625 153.046875 239.0625 C 155.625 239.0625 157.734375 236.953125 157.734375 234.375 L 157.734375 224.296875 C 157.734375 221.71875 155.625 219.609375 153.046875 219.609375 C 150.46875 219.609375 148.359375 221.71875 148.359375 224.53125 Z M 148.359375 224.53125 " fill-opacity="1" fill-rule="nonzero"/><path fill="#000000" d="M 206.25 126.5625 C 208.828125 126.5625 210.9375 124.453125 210.9375 121.875 L 210.9375 114.84375 L 213.28125 114.84375 C 215.859375 114.84375 217.96875 112.734375 217.96875 110.15625 C 217.96875 107.578125 215.859375 105.46875 213.28125 105.46875 L 185.15625 105.46875 C 182.578125 105.46875 180.46875 107.578125 180.46875 110.15625 C 180.46875 112.734375 182.578125 114.84375 185.15625 114.84375 L 201.5625 114.84375 L 201.5625 121.875 C 201.5625 124.453125 203.671875 126.5625 206.25 126.5625 Z M 206.25 126.5625 " fill-opacity="1" fill-rule="nonzero"/><path fill="#000000" d="M 211.640625 141.328125 C 211.640625 143.90625 213.75 146.015625 216.328125 146.015625 L 246.328125 146.015625 L 246.328125 168.75 C 246.328125 171.328125 248.4375 173.4375 251.015625 173.4375 C 253.59375 173.4375 255.703125 171.328125 255.703125 168.75 L 255.703125 141.328125 C 255.703125 138.75 253.59375 136.640625 251.015625 136.640625 L 216.328125 136.640625 C 213.75 136.640625 211.640625 138.75 211.640625 141.328125 Z M 211.640625 141.328125 " fill-opacity="1" fill-rule="nonzero"/><path fill="#000000" d="M 233.90625 201.09375 C 236.484375 201.09375 238.59375 198.984375 238.59375 196.40625 L 238.59375 180.703125 C 238.59375 178.125 236.484375 176.015625 233.90625 176.015625 C 231.328125 176.015625 229.21875 178.125 229.21875 180.703125 L 229.21875 196.40625 C 229.21875 198.984375 231.09375 201.09375 233.90625 201.09375 Z M 233.90625 201.09375 " fill-opacity="1" fill-rule="nonzero"/><path fill="#000000" d="M 208.59375 234.375 C 211.171875 234.375 213.28125 232.265625 213.28125 229.6875 L 213.28125 210.9375 C 213.28125 208.359375 211.171875 206.25 208.59375 206.25 L 199.21875 206.25 C 196.640625 206.25 194.53125 208.359375 194.53125 210.9375 C 194.53125 213.515625 196.640625 215.625 199.21875 215.625 L 203.90625 215.625 L 203.90625 229.6875 C 203.90625 232.265625 206.015625 234.375 208.59375 234.375 Z M 208.59375 234.375 " fill-opacity="1" fill-rule="nonzero"/><path fill="#000000" d="M 186.796875 224.53125 L 186.796875 239.0625 C 186.796875 241.640625 188.90625 243.75 191.484375 243.75 C 194.0625 243.75 196.171875 241.640625 196.171875 239.0625 L 196.171875 224.296875 C 196.171875 221.71875 194.0625 219.609375 191.484375 219.609375 C 188.90625 219.84375 186.796875 221.71875 186.796875 224.53125 Z M 186.796875 224.53125 " fill-opacity="1" fill-rule="nonzero"/><path fill="#000000" d="M 229.21875 248.4375 L 229.21875 214.453125 C 229.21875 211.875 227.109375 209.765625 224.53125 209.765625 C 221.953125 209.765625 219.84375 211.875 219.84375 214.453125 L 219.84375 243.75 L 204.609375 243.75 C 202.03125 243.75 199.921875 245.859375 199.921875 248.4375 C 199.921875 251.015625 202.03125 253.125 204.609375 253.125 L 224.53125 253.125 C 227.109375 253.125 229.21875 251.015625 229.21875 248.4375 Z M 229.21875 248.4375 " fill-opacity="1" fill-rule="nonzero"/><path fill="#000000" d="M 262.03125 180.46875 L 251.015625 180.46875 C 248.4375 180.46875 246.328125 182.578125 246.328125 185.15625 C 246.328125 187.734375 248.4375 189.84375 251.015625 189.84375 L 266.71875 189.84375 C 269.296875 189.84375 271.40625 187.734375 271.40625 185.15625 L 271.40625 168.75 C 271.40625 166.171875 269.296875 164.0625 266.71875 164.0625 C 264.140625 164.0625 262.03125 166.171875 262.03125 168.75 Z M 262.03125 180.46875 " fill-opacity="1" fill-rule="nonzero"/><path fill="#000000" d="M 295.3125 159.375 C 297.890625 159.375 300 157.265625 300 154.6875 L 300 143.4375 C 300 140.859375 297.890625 138.75 295.3125 138.75 L 266.71875 138.75 C 264.140625 138.75 262.03125 140.859375 262.03125 143.4375 C 262.03125 146.015625 264.140625 148.125 266.71875 148.125 L 290.625 148.125 L 290.625 154.6875 C 290.625 157.265625 292.734375 159.375 295.3125 159.375 Z M 295.3125 159.375 " fill-opacity="1" fill-rule="nonzero"/><path fill="#000000" d="M 314.0625 161.71875 C 314.0625 159.140625 311.953125 157.03125 309.375 157.03125 C 306.796875 157.03125 304.6875 159.140625 304.6875 161.71875 L 304.6875 175.78125 L 285.9375 175.78125 L 285.9375 163.125 C 285.9375 160.546875 283.828125 158.4375 281.25 158.4375 C 278.671875 158.4375 276.5625 160.546875 276.5625 163.125 L 276.5625 180.46875 C 276.5625 183.046875 278.671875 185.15625 281.25 185.15625 L 309.375 185.15625 C 311.953125 185.15625 314.0625 183.046875 314.0625 180.46875 Z M 314.0625 161.71875 " fill-opacity="1" fill-rule="nonzero"/><path fill="#000000" d="M 154.6875 307.03125 C 157.265625 307.03125 159.375 304.921875 159.375 302.34375 L 159.375 277.265625 C 159.375 274.6875 157.265625 272.578125 154.6875 272.578125 L 140.625 272.578125 L 140.625 267.1875 C 140.625 264.609375 138.515625 262.5 135.9375 262.5 C 133.359375 262.5 131.25 264.609375 131.25 267.1875 L 131.25 277.265625 C 131.25 279.84375 133.359375 281.953125 135.9375 281.953125 L 150 281.953125 L 150 302.34375 C 150 304.921875 152.109375 307.03125 154.6875 307.03125 Z M 154.6875 307.03125 " fill-opacity="1" fill-rule="nonzero"/><path fill="#000000" d="M 191.484375 307.03125 L 220.078125 307.03125 C 222.65625 307.03125 224.765625 304.921875 224.765625 302.34375 C 224.765625 299.765625 222.65625 297.65625 220.078125 297.65625 L 196.171875 297.65625 L 196.171875 285.9375 C 196.171875 283.359375 194.0625 281.25 191.484375 281.25 L 168.046875 281.25 C 165.46875 281.25 163.359375 283.359375 163.359375 285.9375 C 163.359375 288.515625 165.46875 290.625 168.046875 290.625 L 186.796875 290.625 L 186.796875 302.34375 C 186.796875 304.921875 188.90625 307.03125 191.484375 307.03125 Z M 191.484375 307.03125 " fill-opacity="1" fill-rule="nonzero"/><path fill="#000000" d="M 242.109375 288.75 L 242.109375 274.21875 C 242.109375 271.640625 240 269.53125 237.421875 269.53125 C 234.84375 269.53125 232.734375 271.640625 232.734375 274.21875 L 232.734375 284.0625 L 210 284.0625 C 207.421875 284.0625 205.3125 286.171875 205.3125 288.75 C 205.3125 291.328125 207.421875 293.4375 210 293.4375 L 237.421875 293.4375 C 240 293.4375 242.109375 291.328125 242.109375 288.75 Z M 242.109375 288.75 " fill-opacity="1" fill-rule="nonzero"/><path fill="#000000" d="M 163.359375 269.0625 C 163.359375 271.640625 165.46875 273.75 168.046875 273.75 L 220.078125 273.75 C 222.65625 273.75 224.765625 271.640625 224.765625 269.0625 C 224.765625 266.484375 222.65625 264.375 220.078125 264.375 L 168.046875 264.375 C 165.46875 264.375 163.359375 266.484375 163.359375 269.0625 Z M 163.359375 269.0625 " fill-opacity="1" fill-rule="nonzero"/><path fill="#000000" d="M 264.84375 232.03125 C 267.421875 232.03125 269.53125 229.921875 269.53125 227.34375 C 269.53125 224.765625 267.421875 222.65625 264.84375 222.65625 L 249.609375 222.65625 L 249.609375 202.265625 C 249.609375 199.6875 247.5 197.578125 244.921875 197.578125 C 242.34375 197.578125 240.234375 199.6875 240.234375 202.265625 L 240.234375 227.34375 C 240.234375 229.921875 242.34375 232.03125 244.921875 232.03125 Z M 264.84375 232.03125 " fill-opacity="1" fill-rule="nonzero"/><path fill="#000000" d="M 309.375 222.65625 L 290.625 222.65625 L 290.625 208.59375 C 290.625 206.015625 288.515625 203.90625 285.9375 203.90625 L 262.5 203.90625 C 259.921875 203.90625 257.8125 206.015625 257.8125 208.59375 C 257.8125 211.171875 259.921875 213.28125 262.5 213.28125 L 281.25 213.28125 L 281.25 227.34375 C 281.25 229.921875 283.359375 232.03125 285.9375 232.03125 L 309.375 232.03125 C 311.953125 232.03125 314.0625 229.921875 314.0625 227.34375 C 314.0625 224.765625 311.953125 222.65625 309.375 222.65625 Z M 309.375 222.65625 " fill-opacity="1" fill-rule="nonzero"/><path fill="#000000" d="M 311.71875 208.59375 L 311.71875 194.53125 C 311.71875 191.953125 309.609375 189.84375 307.03125 189.84375 C 304.453125 189.84375 302.34375 191.953125 302.34375 194.53125 L 302.34375 208.59375 C 302.34375 211.171875 304.453125 213.28125 307.03125 213.28125 C 309.609375 213.28125 311.71875 211.171875 311.71875 208.59375 Z M 311.71875 208.59375 " fill-opacity="1" fill-rule="nonzero"/><path fill="#000000" d="M 65.625 166.40625 C 68.203125 166.40625 70.3125 164.296875 70.3125 161.71875 L 70.3125 145.3125 C 70.3125 142.734375 68.203125 140.625 65.625 140.625 C 63.046875 140.625 60.9375 142.734375 60.9375 145.3125 L 60.9375 161.71875 C 60.9375 164.296875 63.046875 166.40625 65.625 166.40625 Z M 65.625 166.40625 " fill-opacity="1" fill-rule="nonzero"/><path fill="#000000" d="M 65.625 185.15625 L 72.65625 185.15625 L 72.65625 192.1875 C 72.65625 194.765625 74.765625 196.875 77.34375 196.875 C 79.921875 196.875 82.03125 194.765625 82.03125 192.1875 L 82.03125 180.46875 C 82.03125 177.890625 79.921875 175.78125 77.34375 175.78125 L 65.625 175.78125 C 63.046875 175.78125 60.9375 177.890625 60.9375 180.46875 C 60.9375 183.046875 63.046875 185.15625 65.625 185.15625 Z M 65.625 185.15625 " fill-opacity="1" fill-rule="nonzero"/><path fill="#000000" d="M 60.9375 229.453125 C 60.9375 232.03125 63.046875 234.140625 65.625 234.140625 C 68.203125 234.140625 70.3125 232.03125 70.3125 229.453125 L 70.3125 215.625 L 96.09375 215.625 C 98.671875 215.625 100.78125 213.515625 100.78125 210.9375 C 100.78125 208.359375 98.671875 206.25 96.09375 206.25 L 65.625 206.25 C 63.046875 206.25 60.9375 208.359375 60.9375 210.9375 Z M 60.9375 229.453125 " fill-opacity="1" fill-rule="nonzero"/><path fill="#000000" d="M 79.6875 229.453125 C 79.6875 232.03125 81.796875 234.140625 84.375 234.140625 L 114.609375 234.140625 C 117.1875 234.140625 119.296875 232.03125 119.296875 229.453125 L 119.296875 210.46875 C 119.296875 207.890625 117.1875 205.78125 114.609375 205.78125 C 112.03125 205.78125 109.921875 207.890625 109.921875 210.46875 L 109.921875 224.765625 L 84.375 224.765625 C 81.796875 224.765625 79.6875 226.875 79.6875 229.453125 Z M 79.6875 229.453125 " fill-opacity="1" fill-rule="nonzero"/><path fill="#000000" d="M 234.375 124.21875 C 236.953125 124.21875 239.0625 122.109375 239.0625 119.53125 L 239.0625 77.34375 C 239.0625 74.765625 236.953125 72.65625 234.375 72.65625 C 231.796875 72.65625 229.6875 74.765625 229.6875 77.34375 L 229.6875 114.84375 L 225 114.84375 C 222.421875 114.84375 220.3125 116.953125 220.3125 119.53125 C 220.3125 122.109375 222.421875 124.21875 225 124.21875 Z M 234.375 124.21875 " fill-opacity="1" fill-rule="nonzero"/><path fill="#000000" d="M 154.6875 168.75 L 154.6875 180.46875 C 154.6875 183.046875 156.796875 185.15625 159.375 185.15625 L 168.75 185.15625 C 171.328125 185.15625 173.4375 183.046875 173.4375 180.46875 C 173.4375 177.890625 171.328125 175.78125 168.75 175.78125 L 164.0625 175.78125 L 164.0625 168.75 C 164.0625 166.171875 161.953125 164.0625 159.375 164.0625 C 156.796875 164.0625 154.6875 166.171875 154.6875 168.75 Z M 154.6875 168.75 " fill-opacity="1" fill-rule="nonzero"/><path fill="#000000" d="M 194.53125 140.625 L 194.53125 147.65625 L 187.5 147.65625 C 184.921875 147.65625 182.8125 149.765625 182.8125 152.34375 C 182.8125 154.921875 184.921875 157.03125 187.5 157.03125 L 199.21875 157.03125 C 201.796875 157.03125 203.90625 154.921875 203.90625 152.34375 L 203.90625 140.625 C 203.90625 138.046875 201.796875 135.9375 199.21875 135.9375 C 196.640625 135.9375 194.53125 138.046875 194.53125 140.625 Z M 194.53125 140.625 " fill-opacity="1" fill-rule="nonzero"/></svg>